<svg width="90" height="90" viewBox="0 0 90 90" fill="none" xmlns="http://www.w3.org/2000/svg">
<path d="M0 44.7397C0 69.4487 20.0306 89.4793 44.7397 89.4793C69.4487 89.4793 89.4793 69.4487 89.4793 44.7397C89.4793 20.0306 69.4487 0 44.7397 0C20.0306 0 0 20.0306 0 44.7397Z" fill="url(#paint0_linear_49_201)"/>
<path d="M0 44.7397C0 69.4487 20.0306 89.4793 44.7397 89.4793C69.4487 89.4793 89.4793 69.4487 89.4793 44.7397C89.4793 20.0306 69.4487 0 44.7397 0C20.0306 0 0 20.0306 0 44.7397Z" fill="url(#paint1_linear_49_201)"/>
<g clip-path="url(#clip0_49_201)">
<g clip-path="url(#clip1_49_201)">
<path d="M31.5457 56.4658C36.0518 56.4658 39.9569 53.8638 39.9569 49.778C39.9569 42.5143 28.124 42.6951 28.124 39.307C28.124 37.8862 29.9105 37.0077 31.5457 37.0077C33.4793 37.0077 35.1145 38.1553 35.1145 39.5508H39.566C39.566 35.0699 35.4465 33.1615 31.5457 33.1615C26.9722 33.1615 23.7061 35.6752 23.7061 39.1851C23.7061 46.6296 35.539 45.7552 35.539 49.778C35.539 51.3207 34.1476 52.3211 31.8483 52.3211C29.1833 52.3211 27.9138 50.4758 27.9138 48.7818H23.4329C23.4329 53.288 26.9722 56.4658 31.5457 56.4658ZM39.9569 56.1043H44.7994L48.158 45.482L53.0004 56.5289L57.8429 45.5409L61.2057 56.1043H66.0482L58.8139 32.9513L53.0004 46.4194L47.1912 32.9513L39.9569 56.1043Z" fill="white"/>
</g>
</g>
<defs>
<linearGradient id="paint0_linear_49_201" x1="0" y1="89.4793" x2="0" y2="0" gradientUnits="userSpaceOnUse">
<stop stop-color="#FF8560"/>
<stop offset="1" stop-color="#F4BDB9"/>
</linearGradient>
<linearGradient id="paint1_linear_49_201" x1="0" y1="89.4793" x2="0" y2="0" gradientUnits="userSpaceOnUse">
<stop stop-color="#FF8560"/>
<stop offset="1" stop-color="#F4BDB9"/>
</linearGradient>
<clipPath id="clip0_49_201">
<rect width="77.4793" height="77.4793" fill="white" transform="translate(6 6)"/>
</clipPath>
<clipPath id="clip1_49_201">
<rect width="42.6136" height="42.6136" fill="white" transform="translate(23.4329 23.4328)"/>
</clipPath>
</defs>
</svg>
